<svg xmlns="http://www.w3.org/2000/svg" version="1.1" width="600px" height="600px" viewBox="0 0 200 200" style="overflow:hidden!important;"><g id="svga-group-wrapper"><g id="svga-group-backs-single"><path id="SvgjsPath12613" d="M0 0h200v200H0V0z" fill="#ecf0f1" stroke-width="none" opacity="1" stroke="none"></path></g><g id="svga-group-humanwrap-move" transform="matrix(1,0,0,1,0,0)"><g id="svga-group-humanwrap" transform="matrix(1.0500002000000002,0,0,1.0500002000000002,-4.985020407302301,-5.727505133439649)"><g id="svga-group-hair-back-move" transform="matrix(1,-2.856368900253737e-18,2.856368900253737e-18,1,0,0)"><g id="svga-group-hair-back"></g></g><g id="svga-group-humanbody-back"><path id="SvgjsPath12558" d="M180.8 184.9c-2.3-3.4-38.9-17.8-38.9-17.8l-13.4-5.2-5.6-68.8H76.8L71.3 162l-13.4 5.2S21.4 181.6 19 185c-2.3 3.4-3.3 14.9-3.3 14.9V219h168.5v-19.2c-.1.1-1-11.5-3.4-14.9z" fill="#f0c7b1" stroke-width="none" opacity="1" stroke="none"></path></g><g id="svga-group-chinshadow-single"><path id="SvgjsPath12554" d="M85.7 157.38c2.95 2.5 14.4 2.34 17.66.34 3.2-1.96 8.57-7.52 22.92-23.62l-3.34-41H76.82l-4.05 50.95c6.27 6.89 11.03 11.73 12.93 13.33z" fill="#d19271" stroke-width="none" opacity="1" stroke="none"></path></g><g id="svga-group-humanbody-front"><path id="SvgjsPath12559" d="M184.5 219c-.1-6.4-.1-12.8-.1-19.2l-.3-.1s.1-.1.2 0c.1 0 .1.1.1.1v-.4l-.1-.5-.1-.9-.2-1.9c-.2-1.3-.4-2.5-.6-3.8-.2-1.3-.5-2.5-.9-3.8-.4-1.2-.8-2.5-1.5-3.6-.8-.9-1.9-1.5-2.9-2.1-1-.6-2.1-1.1-3.2-1.7-2.1-1.1-4.3-2.1-6.5-3.1-4.4-2-8.7-3.9-13.1-5.7-4.4-1.9-8.8-3.7-13.2-5.5l-13-5.2-1.2-16.9c-.4-5s.7-.9-11.5-1.3-17.2l-1.3-17.2-1.5-17.3-.1-.8h-.8c-7.7 0-15.4.1-23.1.1l-23.1.2h-.5v.5L75 110.2l-1.3 17.2c-.8 11.4-1.8 22.8-2.8 34.2-5.6 2.1-11.2 4.2-16.7 6.4-5.6 2.2-11.2 4.5-16.8 6.9-2.8 1.2-5.6 2.4-8.3 3.6-2.8 1.3-5.5 2.5-8.2 4.1-.7.4-1.3.8-2 1.4-.2.1-.4.4-.5.6l-.3.6c-.2.4-.4.7-.5 1.1-.6 1.5-1 3-1.3 4.5-.6 3-1.1 6-1.4 9.1l-.1 19.1v.9h.9l42.1.1H100c14 0 28.1-.1 42.1-.2l42.1-.5h.3v-.3zm-84.5-1-42.1-.1-41.2.1-.1-18.1c.3-3 .6-5.9 1.2-8.9.3-1.4.6-2.9 1.1-4.2.1-.3.3-.7.4-.9l.2-.4.3-.3c.5-.4 1.1-.8 1.8-1.2 2.5-1.5 5.3-2.8 8-4.1 2.7-1.3 5.5-2.5 8.2-3.7 5.5-2.4 11.1-4.8 16.7-7.1s11.2-4.5 16.9-6.7l.2-.1v-.2c.9-11.5 1.7-23 2.7-34.4l1.4-17.2 1.5-16.7 22.6.2c7.4.1 14.8.1 22.3.1l1.3 16.4 1.5 17.2c.5 5.7 1 11.5 1.5 17.2l1.6 17.2v.3l.3.1 13.4 5c4.4 1.7 8.9 3.4 13.3 5.2 4.4 1.8 8.8 3.7 13.2 5.6 2.2 1 4.3 2 6.5 3 1.1.5 2.1 1.1 3.2 1.6 1 .6 2.1 1.2 2.9 2 .7 1.1 1.1 2.3 1.4 3.5.3 1.2.6 2.5.8 3.7.2 1.3.4 2.5.6 3.8l.2 1.9.1.9.1.5v.4c0 6.3 0 12.6-.1 18.9l-41.8-.5c-14 .1-28.1 0-42.1 0z" fill="#c27b55" stroke-width="none" opacity="1" stroke="none"></path><path id="SvgjsPath12560" d="M125.1 142.4s-1.8 23-9.1 32.9c0 0 7.9-25 9.1-32.9zm-34.5 16s5 7.9 11.5 10.1c0 0-9.5 2.2-11.5-10.1zM73.4 140c6.7 25.6 6.7 25.6 8.5 30.7 0 0 .4-12.6-8.5-30.7z" fill="#d19271" stroke-width="none" opacity="1" stroke="none"></path></g><g id="svga-group-clothes-single"><path id="SvgjsPath12443" d="M10.9 220c0-15.2 1.2-32.2 2.3-34.1 1-1.9 5-3.3 5-3.3s3.5-2.9 7.1-4.8c3.5-1.9 15.7-3.9 15.7-3.9s0-1 .4-1.9 1.9-1.2 5-5.2 2.1-4.8 2.7-6.7c.6-1.9 4.4-1.5 4.4-1.5s.4-6 4.8-10c4.4-3.9 13.6-6.6 13.6-6.6s-.1 6.9-.1 11.3-1.3 4.6 5.1 12.6c6.5 7.9 12.4 15.1 15.4 17 3.1 1.9 7.2 4 9.1 9.5 0 0 1.7-4.4 3.7-5.9s6.2-6 7.9-7.7c1.7-1.7 5.3-8.1 7.5-9.5 2.2-1.5 7.4-6.5 8.3-7.9s-.9-21.7-.9-21.7 6.9 3.7 9.4 5.4c2.5 1.7 4.9 9.5 4.9 9.5s2.4 2.1 5.1 4.1 4.7 2.9 6.2 5.7c1.5 2.8.8 5.3 1.4 6.5.6 1.1 1.2 2 1.6 2.6 0 0 17.1 5.1 20 6.4s5.7 4 5.7 4 3.1 1.9 3.9 9.8 1.8 26.4 1.8 26.4l-177-.1z" fill="#d0ae3c" stroke-width="none" opacity="1"></path><path id="SvgjsPath12444" d="m188.6 219.9-1.2-18.6c-.2-3.1-.4-6.2-.9-9.3-.2-1.6-.6-3.2-1.2-4.7-.3-.8-.7-1.5-1.1-2.2-.2-.4-.5-.7-.8-1-.3-.3-.5-.6-.9-.9-1.5-1.4-3.1-2.6-4.9-3.6-.9-.5-1.9-.9-2.8-1.2l-2.8-1.1-15.3-4.3c-.5-.8-1.1-1.6-1.4-2.4-.1-.3-.2-.8-.2-1.3s-.1-1-.1-1.6c-.2-2.2-1.2-4.3-2.7-5.9-1.6-1.6-3.4-2.6-5.1-3.8-1.6-1.1-3.2-2.4-4.7-3.7-.6-1.7-1.2-3.3-1.9-4.9-.4-.8-.8-1.6-1.3-2.4-.5-.8-1-1.6-1.9-2.2-1.5-1-3.1-1.9-4.7-2.8-1.6-.9-3.2-1.7-4.8-2.6l-.7-.4s.7 11.7 1 17.3c0 1.4.4 3 .3 4.3 0 .2 0 .3-.1.5 0 .1 0 .1-.1.2l-.1.2c-.2.3-.4.5-.6.8-.4.5-.9 1-1.4 1.5-2 2-4 3.9-6.2 5.6-1.1.9-2 2.1-2.8 3.2-.8 1.1-1.6 2.3-2.4 3.4-.4.6-.8 1.1-1.2 1.7-.4.6-.8 1.1-1.4 1.5-1.1.8-3.5 4.2-6.3 6.5-.6.4-1.2.7-1.8 1.3-.5.5-.9 1.1-1.3 1.7-.6.9-1.1 1.8-1.5 2.8-.9-2.2-2.5-4.3-4.4-5.8-1.1-.9-2.2-1.6-3.4-2.4-1.2-.7-2.1-1.7-3.2-2.5-4.4-4-4.4-6-8.3-9.7-1.9-1.9-3.6-4.1-5.2-6.2-.8-1.1-1.7-2.1-2.4-3.2-.8-1.1-1.4-2.2-1.8-3.4-.4-1.1-.2-2.4-.1-3.8l.1-4.1.1-8.1v-1.2l-1.2.3c-2.2.6-4.3 1.4-6.3 2.3-2.1.9-4.1 1.9-6 3.2-1.9 1.3-3.6 3.1-4.6 5.2-1 1.8-1.6 3.8-1.9 5.8-.7 0-1.4.1-2.2.2-.5.1-1 .3-1.5.7-.2.2-.5.5-.6.8-.2.3-.2.6-.3.8-.1.5-.2 1-.2 1.4 0 .4-.1.8-.2 1.1-.2.7-.7 1.5-1.1 2.2-1 1.4-2.1 2.8-3.3 4-.6.6-1.2 1.1-2 1.8-.2.2-.4.4-.6.7-.2.3-.2.5-.3.8-.1.3-.2.6-.2 1-1.5.4-7.5.9-9 1.4-1.6.6-3.2 1.1-4.8 1.8-1.6.7-3.1 1.6-4.5 2.6-1.4.9-2.7 1.9-4 3-1.6.7-3.1 1.4-4.4 2.6-.3.3-.6.7-.9 1.2-.2.5-.2.9-.3 1.3-.2.9-.3 1.7-.4 2.5-.4 3.4-.6 6.7-.8 10.1-.2 3.4-.3 6.7-.3 10.1 0 1.7-.1 3.4-.1 5 0 1.7 0 3.3.1 5.1l43.9.4 44.2.3c14.7.1 29.5.1 44.3.2 14.8 0 29.6.1 44.4 0h1.1l-.1-1.1zm-85-30.9c.4-.6.8-1.1 1.2-1.6.4-.5 1-.8 1.6-1.2 2.4-1.4 3.4-4.9 12.8-9.5 3.2-1.6 6-3.6 8.7-5.7 1.4-1.1 2.7-2.2 4-3.3.6-.6 1.3-1.2 1.8-2s.9-1.6 1.3-2.4c.7-1.7 1.1-3.4 1.2-5.2 0-.4 0-.9-.1-1.4-.1-.4-.2-.9-.4-1.3-.3-.8-.7-1.6-1.2-2.3.3.8.5 1.6.7 2.5.1.8.2 1.6 0 2.4-.3 1.6-.9 3.2-1.7 4.6-.4.7-.8 1.4-1.3 2-.5.6-1.1 1.1-1.7 1.7-1.3 1.1-2.6 2.1-3.9 3.2-1.3 1.1-2.7 2.1-4.1 3.1l-2.1 1.5c-.7.5-1.4.9-2.1 1.4-1.5.9-2.9 1.9-4.4 2.9.1-.1.1-.2.2-.2.4-.6.8-1.1 1.2-1.7.8-1.1 1.6-2.3 2.4-3.4.8-1.1 1.7-2.3 2.7-3.1 2.3-1.6 4.3-3.6 6.3-5.6l1.5-1.5c.2-.3.5-.5.7-.8 0 0 2-2.5 2.4-3.6.5-1.3.8-2.7.7-4.2-.2-1.4-.9-5.1-1.6-6.4-.5-1.1-2-4.9-2.2-7.2 1.4.8 2.7 1.5 4.1 2.3 1.6.9 3.1 1.8 4.6 2.8.6.4 1.1 1.2 1.6 1.9.4.8.8 1.5 1.2 2.4.7 1.6 1.3 3.3 1.9 5l.1.1.1.1c.1 0 .1.1.1.1v.1c0 1.1-.1 2.3-.3 3.4-.3 2.2-1 4.4-1.8 6.5-1.5 4.2-3.9 8.1-7.5 10.4-.9.6-1.8 1.1-2.9 1.7l-3 1.8-5.8 3.6c-1 .6-1.9 1.1-2.9 1.6-.5.2-1 .5-1.5.6-.5.2-1.1.3-1.6.4-2.2.6-4.4 1.2-6.6 1.9 2.3-.3 4.6-.6 6.8-.9.6-.1 1.1-.1 1.7-.3.6-.1 1.2-.3 1.7-.6 1.1-.4 2.1-1 3.2-1.5 2.1-1.1 4-2.3 6-3.4 1-.6 2-1.1 3-1.7 1-.5 2.1-1.1 3-1.8 2-1.4 3.7-3.1 5-5.1 1.3-2 2.2-4.2 2.9-6.5.7-2.2 1.1-4.5 1.2-6.9 0-1 0-2.1-.1-3.1 1.3 1.2 2.7 2.3 4.1 3.3 1.7 1.2 3.5 2.2 4.8 3.6 1.3 1.4 2.1 3.2 2.3 5.2.1.5.1 1 .1 1.5s0 1 .3 1.7c-.8.9-1.6 1.9-2.3 2.8-.9 1.2-1.9 2.3-2.8 3.4-1.9 2.1-4.2 4.2-6.1 6.6 1.5-.6 2.8-1.4 4.1-2.2 1.3-.9 2.5-1.9 3.5-3 1.1-1.2 1.9-2.5 2.6-3.9.5-1 1-2 1.3-3.1.4.8.9 1.6 1.4 2.2l.1.2h.1c-1.5 2.2-3 4.4-4.7 6.6-1.8 2.3-3.7 4.6-5.9 6.4-2.3 1.8-4.8 3.2-7.5 4.3-2.7 1.1-5.4 2.1-8.2 2.9-2.8.8-5.7 1.3-8.6 1.8-2.9.5-5.7 1.2-8.6 1.6-3.4.6-4.8.5-5.1.5 0-1.1-.1-2.1-.3-2.8.6-.3 1.4-.9.1-1.4-1.6-.5-3.1.2-3.1.9-.1.6.5.7 1.1.7.2.6.2 1.3.2 2.1-.3-.1-.6-.3-.8-.5-.5-.4-.9-.8-1.3-1.3-.3-.5-.7-1.1-.8-1.6l-.6-2.1c.6-.9 1.1-2 1.8-3zm-61.9-14.6v-.6c0-.3.1-.8.2-1.1 0-.2.1-.4.2-.4 0-.1.1-.2.3-.3.6-.5 1.4-1.1 2-1.8 1.3-1.3 2.5-2.7 3.5-4.2.5-.8 1-1.6 1.3-2.6.3-1 .3-2 .5-2.7 0-1.1 1.6-1.3 3.1-1.3 0 .6.1 1.1.1 1.7.4 3.3 1.5 6.6 3.1 9.6 1.7 2.9 3.9 5.6 6.5 7.6 2.6 2.1 5.6 3.7 8.7 4.7-2.8-1.8-5.4-3.7-7.7-5.9s-4.3-4.7-5.8-7.4c-.8-1.4-1.4-2.8-2-4.3-.6-1.5-1-3-1.3-4.5-.1-.5-.2-1.1-.3-1.6l.1-.6c.2-2 .9-4.1 1.9-5.9 1-1.9 2.4-3.4 4.1-4.6 1.7-1.2 3.7-2.1 5.7-3 1.6-.7 3.3-1.3 5-1.9 0 0-1.7 4.2-2.2 5.1-.7 1.1-1 2.6-.7 3.9.1.7.3 1.3.6 1.8.2.6.5 1.1.8 1.6.4.7 3 5.6 3.8 6.8.8 1.1 1.7 2.2 2.5 3.3 1.7 2.1 3.6 4.9 5.6 6.8 4.1 4 3.8 6.3 8.3 9.4 1.1.8 2.3 1.5 3.5 2.2 1.2.7 2.3 1.4 3.3 2.2 2.1 1.6 3.7 3.8 4.6 6.3l.1.3-.4 1.1c-.2.6-.5 1.3-.9 1.8-.4.6-.8 1-1.2 1.1-.1 0-.2.1-.4.1h-1.3c0-.1.1-.2.1-.3.3-.6.6-1.2.8-1.5.4.1.9 0 1-.3.2-.5-.6-2.1-1.6-2-.9 0-1.3.3-.5 1.4-.6.6-1.3 1.5-1.8 2.8h-.6c-3.1-.1-6.1-.4-9.2-.7-3.1-.4-6.1-.7-9-1.5-2.9-.8-15.6-7.5-21.2-10-2.8-1.2-5.7-2.4-8.3-4.1-1.3-.9-2.5-1.8-3.5-3-.8-.9-1.6-2.1-1.9-3.3l.5-.2zm102 44.6c-14.7 0-29.3.1-44 .2l-44.2.3-44.5.4c.1-1.6.1-3.3.2-5l.2-5c.1-3.4.3-6.7.6-10.1.2-3.3.6-6.7 1-10 .1-.8.2-1.6.4-2.4.1-.4.2-.8.3-1.1.1-.3.4-.6.6-.8 1.1-1 2.7-1.8 4.2-2.4h.1l.1-.1c1.3-1 2.7-2 4.1-2.9 1.4-.9 2.8-1.8 4.3-2.4 3-1.3 10.9-2.2 14.1-3.1.3 1.3 1 2.4 1.8 3.5 1 1.2 2.2 2.3 3.4 3.2 2.5 1.9 5.4 3.2 8.2 4.5 5.6 2.7 18.2 9.9 21.2 10.8 1.5.4 3.1.8 4.6 1s3.1.5 4.6.7c3.1.4 6.2.6 9.3.8h.2v.1c-.3 2.9 1.6 8.7 2 12.1s-1 6.8-.3 7 2.5.9 2.8-.2c.3-1.1.6-10.9-.9-13.9-.9-1.8-1.3-3.6-1.3-5.1H98.5c.2 0 .5-.1.8-.1 1.1-.3 1.8-1.2 2.3-1.9.1-.1.1-.2.2-.3 0 .1.1.1.1.2.5.7 1.1 1.3 1.8 1.8.6.4 1.2.7 1.8.9-.1.5-.1.9-.2 1.3-.4 1.9-2 3.1-1.2 7.2s3.1 6.1 3.4 7.7c.3 1.6.4 2.9 1 2.9s2.4-.7 2.7-1.6-.8-3.5-2.3-5.4c-1.5-1.9-2.8-4.6-2.8-6.1 0-1.3.9-3.7 1.3-5.7 6.7-.6 11.3-1.8 14.2-2.3s5.8-1.2 8.6-2c2.9-.9 5.6-1.9 8.3-3.2 2.7-1.3 5.3-2.8 7.6-4.8 2.2-2 4.1-4.4 5.8-6.8 1.6-2.2 3-4.5 4.3-6.9h.1l15.4 4.5 2.7 1.1c.9.4 1.8.8 2.6 1.2 1.6.9 3.2 2.1 4.6 3.4l.1.1.6.6.6.9c.4.6.7 1.3.9 1.9.5 1.4.9 2.8 1.1 4.3.4 3 .6 6.1.8 9.2.4 5.8.7 11.7 1.1 17.5-14.5.2-28.8.2-43.1.3zM32.8 203.3c-.3-1.8-1-3.3-1.7-4.7-1.5-2.9-3.2-5.6-5.1-8.2-1-1.3-1.9-2.6-3.1-3.7-1.2-1.1-2.5-2.1-4.1-2.6 1.4.8 2.5 2 3.4 3.2.9 1.2 1.7 2.6 2.6 3.9 1.6 2.7 3.2 5.4 4.6 8.2.7 1.4 1.4 2.8 1.6 4.1.3 1.5.4 3.1.6 4.6.3 3.1.6 6.3 1.1 9.5.4-3.2.5-6.4.4-9.6 0-1.4-.1-3-.3-4.7zm142.4-17.5c-.9.2-1.8.7-2.4 1.4-.6.7-1.1 1.5-1.5 2.2-1.8 2.8-3.6 5.7-5.2 8.7-.4.8-.7 1.6-1.1 2.4-.2.4-.3.8-.4 1.3-.1.4-.2.9-.3 1.3-.2 1.7-.4 3.4-.4 5.1-.1 3.4-.1 6.8.1 10.1.6-3.3 1-6.7 1.5-10 .2-1.6.4-3.3.7-4.9.3-1.5 1-3 1.7-4.4 1.5-3 3.2-5.8 4.7-8.9.4-.8.7-1.5 1.1-2.1.4-.6 1-1 1.7-1.3.7-.3 1.6-.4 2.4-.8.8-.3 1.6-.8 2.2-1.3-.8.4-1.6.6-2.4.8-.7.2-1.5.2-2.4.4z" fill="#b18c10" stroke-width="none" opacity="1"></path><path id="SvgjsPath12445" d="M173.1 180.5c-3.5-1.5-13.8-3-16.4-4.8 0 0 11.8 6.1 15.9 7.4 4.1 1.3 7.2.9 7.2.9s-3.2-2-6.7-3.5zm-32.6-24.6c0-3.2-2.4-7.4-4.1-9.5s-5.4-3.2-6.9-4.3c0 0 .9.9 2.6 2.8 1.7 1.9 5 6.7 5.6 10.6.6 3.9-2.6 11.3-4.8 14.1s-10.8 7.2-14.8 9.5c-3.9 2.4-7.5 5.6-12.1 8.2s-3 6.9-3 6.9.7-2.6 2.2-4.6 7.3-6.1 11.6-7.4c4.3-1.3 14.3-7.4 18.2-11.1 3.9-3.4 5.5-11.9 5.5-15.2zm3.2 2.2s1.9 3 3.2 4.8c1.3 1.7 2.4 5.9-1.5 12.4s-15 13.2-15 13.2 9.5-4.3 12.6-6.5c3-2.2 8.9-9.5 9.3-11.3.4-1.7-.2-4.8-1.5-6.9-1.2-2.2-6.2-4.8-7.1-5.7zm-59.3 22.6c-3.9-3-11.4-13.2-14.4-17.1-3-3.9-3.2-8-3.5-10.8 0 0-2.4 2.6-2.8 4.8s-.4 5.9 3.2 8.9c3.7 3 17.5 18 22.7 20.4 5.2 2.4 9.3 5.9 9.3 5.9s-1.1-2.6-2.4-3.9c-1.3-1.5-8.2-5.2-12.1-8.2zM60 185.4c3.9 1.5 14.5 6.3 17.3 7.4s15.1 3 15.1 3-11.8-3.9-15.8-5.6c-3.8-1.7-16.6-4.8-16.6-4.8z" fill="#dfc057" stroke-width="none" opacity="1"></path></g><g id="svga-group-head" transform="matrix(1,-2.856368900253737e-18,2.856368900253737e-18,1,0,0)"><g id="svga-group-ears-left-move" transform="matrix(1,0,0,1,0,0)"><g id="svga-group-ears-left"><path id="SvgjsPath12966" d="M68.53 80.36s-11.15-9.8-12.94-9.96c-1.54-.14-5.36 8.01-7.05 13.16-.45 1.36-.34 2.88.25 4.2 1.62 3.57 5.21 11.04 8.43 14.78 0 0 2.72.59 3.58.33.86-.25 7.58-5.67 8.27-7.77s.83-11.3-.54-14.74z" fill="#f0c7b1" stroke-width="none" opacity="1"></path><path id="SvgjsPath12967" d="M69.49 84.19c.18 1.31.28 2.64.33 3.96.05 1.32.06 2.65-.01 3.98a26.7 26.7 0 0 1-.17 1.99c-.05.34-.1.67-.2 1.02s-.28.7-.46.96c-.72 1.11-1.6 1.95-2.47 2.8-.88.84-1.78 1.63-2.71 2.4-.47.38-.93.75-1.42 1.11-.24.18-.49.35-.74.52l-.4.24c-.16.08-.35.17-.53.19-.67.08-1.23-.01-1.82-.09-.58-.08-1.15-.19-1.73-.32l-.13-.03-.08-.1c-1.45-1.74-2.63-3.68-3.74-5.65-1.1-1.98-2.1-4.03-3.06-6.1l-1.41-3.11c-.5-1.05-.71-2.29-.54-3.46.06-.59.26-1.14.44-1.67.18-.54.37-1.07.56-1.6.4-1.05.79-2.11 1.22-3.15.86-2.07 1.76-4.13 2.94-6.02.3-.47.62-.93 1-1.36.19-.21.4-.42.67-.59.13-.08.3-.16.52-.16.19.01.32.07.47.12 1.06.47 1.87 1.14 2.75 1.76 1.72 1.29 3.37 2.66 5 4.09 1.64 1.41 3.22 2.86 4.81 4.38.49 1.27.72 2.58.91 3.89zM58.4 72.51c-.85-.59-1.75-1.26-2.59-1.61-.09-.02-.2-.08-.26-.08-.04 0-.12.02-.2.07-.17.1-.35.25-.51.44-.34.36-.65.8-.94 1.24-1.16 1.8-2.18 3.77-3.11 5.77-.46 1.01-.92 2.02-1.32 3.06-.2.52-.4 1.04-.59 1.57-.19.53-.38 1.05-.45 1.6-.15 1.11.06 2.27.55 3.26.47 1.03.98 2.05 1.49 3.05 1.02 2.02 2.12 3.99 3.26 5.91 1.15 1.91 2.36 3.79 3.76 5.42l-.21-.13c1.09.2 2.3.43 3.29.33.11-.01.18-.06.28-.11l.35-.22.7-.5c.47-.34.93-.71 1.39-1.08.92-.74 1.81-1.52 2.68-2.34.85-.82 1.73-1.66 2.39-2.61.17-.25.29-.46.38-.72.08-.27.14-.58.19-.89.09-.63.17-1.27.21-1.91.1-1.29.14-2.6.15-3.9.01-1.31-.04-2.62-.15-3.92-.11-1.3-.27-2.62-.66-3.84-3.33-2.62-6.67-5.35-10.08-7.86z" fill="#e1ac8f" stroke-width="none" opacity="1"></path><path id="SvgjsPath12968" d="M68.79 88.66S58.04 75.08 56.02 76.21c-2.01 1.12-5.19 7.53-5.18 9.67.02 3.14 3.34 8.38 5.01 9.96s3.68 2.55 6.35 1.94c2.66-.61 6.59-9.12 6.59-9.12z" fill="#e1ac8f" stroke-width="none" opacity="1"></path><path id="SvgjsPath12969" d="M60.61 88.64c-.45-1.26-.95-2.5-1.45-3.74a49.61 49.61 0 0 0-1.66-3.64c-.61-1.18-1.22-2.36-1.97-3.45l-.08-.12-.08.12c-.75 1.18-1.45 2.38-2.12 3.62-.33.62-.66 1.25-.96 1.89-.31.64-.57 1.31-.84 1.98l-.04.1.04.12c.46 1.41.96 2.79 1.47 4.18.25.69.54 1.37.83 2.05.3.68.59 1.35.99 2.01l.19.31.25-.23c.34-.31.6-.65.87-1.02.26-.37.49-.76.69-1.17.4-.82.63-1.78.6-2.74v-.06l-.02-.04c-.5-.99-1.03-1.96-1.55-2.94l-.05.03c.42 1.01.83 2.03 1.26 3.03-.04.86-.3 1.68-.68 2.41-.33.62-.77 1.17-1.24 1.65-.26-.49-.5-1.02-.73-1.56l-.81-2.03c-.53-1.32-1.03-2.66-1.52-3.99.45-1.3.94-2.59 1.52-3.82.57-1.23 1.22-2.41 1.96-3.51.67 1.04 1.17 2.23 1.68 3.39l1.54 3.67 1.56 3.67c.52 1.22 1.05 2.45 1.6 3.66l.06-.03c-.41-1.27-.85-2.54-1.31-3.8z" fill="#c27b55" stroke-width="none" opacity="1"></path></g></g><g id="svga-group-ears-right-move" transform="matrix(1,0,0,1,0,0)"><g id="svga-group-ears-right"><path id="SvgjsPath12970" d="M131.47 80.36s11.15-9.8 12.94-9.96c1.54-.14 5.36 8.01 7.05 13.16.45 1.36.34 2.88-.25 4.2-1.62 3.57-5.21 11.04-8.43 14.78 0 0-2.72.59-3.58.33-.86-.25-7.58-5.67-8.27-7.77s-.83-11.3.54-14.74z" fill="#f0c7b1" stroke-width="none" opacity="1"></path><path id="SvgjsPath12971" d="M131.44 80.33c1.58-1.52 3.17-2.97 4.81-4.38 1.62-1.42 3.28-2.8 5-4.09.88-.63 1.69-1.29 2.75-1.76.16-.04.28-.11.47-.12.21 0 .38.08.52.16.28.17.49.37.67.59.38.43.7.89 1 1.36 1.18 1.89 2.07 3.96 2.94 6.02.43 1.04.82 2.09 1.22 3.15.19.53.38 1.06.56 1.6.18.53.37 1.08.44 1.67.17 1.17-.04 2.41-.54 3.46l-1.41 3.11c-.97 2.06-1.96 4.11-3.06 6.1-1.11 1.98-2.29 3.92-3.74 5.65l-.08.1-.13.03c-.58.13-1.15.23-1.73.32-.59.07-1.16.16-1.82.09-.18-.02-.37-.11-.53-.19l-.4-.24c-.25-.17-.5-.34-.74-.52-.48-.36-.95-.73-1.42-1.11-.93-.76-1.83-1.56-2.71-2.4-.87-.86-1.75-1.69-2.47-2.8a3.42 3.42 0 0 1-.46-.96c-.1-.35-.14-.69-.2-1.02-.08-.67-.14-1.33-.17-1.99-.07-1.33-.07-2.65-.01-3.98.06-1.32.15-2.65.33-3.96.17-1.34.4-2.65.91-3.89zm.06.06c-.4 1.21-.56 2.54-.66 3.84-.1 1.3-.15 2.61-.15 3.92.01 1.31.06 2.61.15 3.9.05.65.12 1.29.21 1.91.06.31.11.62.19.89.09.26.2.47.38.72.66.94 1.54 1.79 2.39 2.61.86.81 1.76 1.59 2.68 2.34.46.37.92.73 1.39 1.08l.7.5.35.22c.1.05.17.1.28.11.99.1 2.2-.13 3.29-.33l-.21.13c1.4-1.63 2.61-3.51 3.76-5.42 1.14-1.92 2.24-3.89 3.26-5.91.51-1.01 1.02-2.02 1.49-3.05.49-.99.7-2.15.55-3.26-.07-.56-.26-1.07-.45-1.6s-.38-1.05-.59-1.57c-.4-1.04-.86-2.06-1.32-3.06-.93-2.01-1.95-3.97-3.11-5.77-.29-.44-.6-.88-.94-1.24-.17-.18-.35-.34-.51-.44a.431.431 0 0 0-.2-.07c-.06 0-.17.06-.26.08-.84.35-1.74 1.02-2.59 1.61-3.39 2.49-6.73 5.22-10.08 7.86z" fill="#e1ac8f" stroke-width="none" opacity="1"></path><path id="SvgjsPath12972" d="M131.21 88.66s10.75-13.58 12.77-12.45c2.01 1.12 5.19 7.53 5.18 9.67-.02 3.14-3.34 8.38-5.01 9.96s-3.68 2.55-6.35 1.94c-2.66-.61-6.59-9.12-6.59-9.12z" fill="#e1ac8f" stroke-width="none" opacity="1"></path><path id="SvgjsPath12973" d="M148.54 85.31c-.26-.67-.52-1.34-.84-1.98-.3-.64-.62-1.27-.96-1.89-.67-1.24-1.38-2.44-2.12-3.62l-.08-.12-.08.12c-.74 1.1-1.36 2.27-1.97 3.45-.6 1.18-1.14 2.4-1.66 3.64-.49 1.24-1 2.48-1.45 3.74-.46 1.26-.9 2.53-1.28 3.81l.06.03c.55-1.21 1.07-2.44 1.6-3.66l1.56-3.67 1.54-3.67c.51-1.16 1.01-2.35 1.68-3.39.74 1.1 1.39 2.29 1.96 3.51.58 1.24 1.08 2.52 1.52 3.82-.5 1.34-.99 2.67-1.52 3.99l-.81 2.03c-.23.53-.47 1.07-.73 1.56-.47-.48-.91-1.03-1.24-1.65-.39-.73-.64-1.55-.68-2.41.43-1 .84-2.02 1.26-3.03l-.05-.03c-.52.98-1.05 1.95-1.55 2.94l-.02.04v.06c-.03.96.2 1.92.6 2.74.2.41.43.81.69 1.17.26.36.53.71.87 1.02l.25.23.19-.31c.4-.67.69-1.34.99-2.01.29-.68.57-1.36.83-2.05.51-1.38 1.01-2.77 1.47-4.18l.04-.12-.07-.11z" fill="#c27b55" stroke-width="none" opacity="1"></path></g></g><g id="svga-group-faceshape-wrap"><g id="svga-group-faceshape-single"><path id="SvgjsPath12540" d="M140.4 54.9c-2.2-10-6.3-16-15.2-20.8-9.3-5-25.2-4.8-25.2-4.8s-15.9-.2-25.2 4.8c-8.8 4.8-13 10.8-15.2 20.8-.9 4 0 13.6 0 13.6s1.6 12.3 1.7 18.2c.2 5.8 1.4 18 2.2 25.1.98 7.08 1.46 7.68 1.46 7.68 12.25 14.4 22.69 25.32 25.74 27.9 2.95 2.5 14.4 2.34 17.66.34 3.46-2.12 9.44-8.42 26.53-27.68 0 0 .27-1.05 1.07-8.15s2.13-16.31 2.54-25.19c.2-5.8 1.7-18.2 1.7-18.2.1-.1 1.1-9.6.2-13.6z" fill="#f0c7b1" stroke-width="none" opacity="1" stroke="none"></path><path id="SvgjsPath12541" d="M140.4 54.9c-2.2-10-6.3-16-15.2-20.8-9.3-5-25.2-4.8-25.2-4.8s-15.9-.2-25.2 4.8c-8.8 4.8-13 10.8-15.2 20.8-.9 4 0 13.6 0 13.6s1.6 12.3 1.7 18.2c.2 5.8 1.4 18 2.2 25.1.98 7.08 1.46 7.68 1.46 7.68 12.25 14.4 22.69 25.32 25.74 27.9 2.95 2.5 14.4 2.34 17.66.34 3.46-2.12 9.44-8.42 26.53-27.68 0 0 .27-1.05 1.07-8.15s2.13-16.31 2.54-25.19c.2-5.8 1.7-18.2 1.7-18.2.1-.1 1.1-9.6.2-13.6zm-.03 10.19-.33 3.24-.06.13c-.55 4.29-1.13 8.57-1.59 12.87-.24 2.14-.41 4.33-.56 6.47-.17 2.14-.39 4.28-.63 6.42-.49 4.28-1.14 8.54-1.72 12.82-.3 2.13-.6 4.3-.86 6.43l-.43 3.2-.23 1.59-.13.78-.08.41-10.86 12.02c-3.72 4.04-7.41 8.17-11.32 11.92-.98.92-1.98 1.83-3 2.6-.25.2-.51.36-.77.54-.14.1-.57.32-.71.37-.53.22-1.14.39-1.76.52-2.52.53-5.25.65-7.89.51-1.32-.09-2.64-.24-3.86-.56-.6-.16-1.19-.36-1.66-.61-.1-.07-.51-.34-.64-.46-.25-.21-.49-.43-.74-.66-1.98-1.83-3.9-3.82-5.82-5.78-3.83-3.94-7.58-7.98-11.27-12.06l-5.53-6.13-1.36-1.54-.68-.77-.17-.19s-.17-.3-.2-.42c-.36-1.24-.61-2.62-.85-3.96-.5-2.7-.79-5.41-1.12-8.16-.31-2.74-.65-5.47-.9-8.22-.26-2.74-.51-5.49-.7-8.23-.21-2.73-.23-5.5-.48-8.26-.21-2.76-.48-5.5-.78-8.25-.27-2.76-.67-5.47-.76-8.21-.12-2.74-.16-5.5.06-8.19.06-.67.14-1.34.28-1.97.14-.64.33-1.31.49-1.97.37-1.31.78-2.6 1.27-3.85.98-2.51 2.25-4.89 3.93-6.95 1.64-2.09 3.68-3.83 5.88-5.34 1.1-.76 2.26-1.43 3.44-2.08 1.16-.62 2.38-1.12 3.64-1.58 2.52-.9 5.16-1.51 7.83-1.97 2.67-.48 5.38-.8 8.09-1 2.72-.21 5.43-.32 8.16-.24 5.45.14 10.94.63 16.2 2.02 2.64.7 5.16 1.68 7.52 3.07 2.36 1.36 4.6 2.96 6.51 4.92 1.86 1.99 3.45 4.26 4.57 6.77 1.14 2.5 1.94 5.14 2.54 7.83.23 1.1.29 2.24.33 3.37.03 1.13.01 2.27-.03 3.4-.1 1.13-.16 2.26-.26 3.39z" fill="#c27b55" stroke-width="none" opacity="1" stroke="none"></path></g></g><g id="svga-group-mouth-single-move" transform="matrix(1,0,0,1,0,0)"><g id="svga-group-mouth-single"><path id="SvgjsPath12633" d="M119.9 121.9c-.2-.3-.6-.6-.9-.8-.3-.1-.8-.1-.8.4 0 .3.2.6.5.8-.66 1.22-2.4 1.46-3.8 1.56-1.5.1-2.71.22-4.49-.17-3.42-.92-6.52-1.82-9.62-1.62-2.9.1-5.13.98-7.93 1.78-3.3.9-7.66 2.74-9.96-.66.3-.2.6-.4.8-.7.4-.4 0-1-.5-.9-1 .3-2.3 1.6-2.2 2.7 0 .2.3.4.5.3.4-.3.7-.7 1-1 .9 1.7 2.7 2.5 4.7 2.7 2 .1 3.9-.5 5.9-.9 2.2-.5 4.4-.7 6.6-.8 4.1-.1 8.1.2 12.2.4 2.4.1 5.7.4 7.5-1.5.1.3.2.6.5.8.1.1.3 0 .4-.1.7-.59 0-1.69-.4-2.29z" fill="#da7c87" stroke-width="none" opacity="1" stroke="none"></path><path id="SvgjsPath12634" d="M105.6 128.4c-3.4.2-6.6.7-10 .5-.3 0-.3.4-.1.4 3.2.7 7 .9 10.2-.2.4-.1.4-.7-.1-.7z" fill="#d19271" stroke-width="none" opacity="1" stroke="none"></path></g></g><g id="svga-group-eyes-left-move" transform="matrix(1,0,0,1,0,0)"><g id="svga-group-eyes-left"><g id="svga-group-eyesback-left"><path id="SvgjsPath12500" d="M80.2 74.2c7.5 0 13.5 5.8 13.5 13s-6 13-13.5 13-13.5-5.8-13.5-13 6-13 13.5-13z" fill="#ffffff" stroke-width="none" opacity="1"></path></g><g id="svga-group-eyesiriswrapper-left" transform="matrix(1,0,0,1,0,0)"><g id="svga-group-eyesiriscontrol-left" transform="matrix(1,0,0,1,0,0)"><g id="svga-group-eyesiris-left"><path id="SvgjsPath12575" d="M80.2 81.9c2.9 0 5.3 2.4 5.3 5.3s-2.4 5.3-5.3 5.3-5.3-2.4-5.3-5.3 2.4-5.3 5.3-5.3z" fill="#bd6723" stroke-width="none" opacity="1"></path><path id="SvgjsPath12576" d="M80.2 92.8c-3.1 0-5.6-2.5-5.6-5.6s2.5-5.6 5.6-5.6 5.6 2.5 5.6 5.6c0 3.1-2.5 5.6-5.6 5.6zm0-10.6c-2.8 0-5.1 2.3-5.1 5.1s2.3 5.1 5.1 5.1 5.1-2.3 5.1-5.1c-.1-2.9-2.3-5.1-5.1-5.1z" fill="#9e4600" stroke-width="none" opacity="1"></path><path id="SvgjsPath12577" d="M80.2 84.3c1.6 0 2.9 1.3 2.9 2.9s-1.3 2.9-2.9 2.9-2.9-1.3-2.9-2.9 1.3-2.9 2.9-2.9z" fill="#000000" stroke-width="none" opacity="1"></path><path id="SvgjsPath12578" d="M78.9 84.3c.5 0 1 .4 1 1s-.4 1-1 1-1-.4-1-1 .5-1 1-1zm3.3 4.6c.2 0 .4.2.4.4s-.2.4-.4.4-.4-.2-.4-.4.2-.4.4-.4z" fill="#ffffff" stroke-width="none" opacity="1"></path></g></g></g><g id="svga-group-eyesfront-left"><path id="SvgjsPath12508" d="M80.2 73.7c-7.8 0-14.1 6.1-14.1 13.6s6.3 13.6 14.1 13.6 14.1-6.1 14.1-13.6S88 73.7 80.2 73.7zm-4.9 20.2c-4.8-1.7-6.4-6.7-7.2-10.1-.9-3.5 13.8-3.5 17.5-.4 3.8 3 5.3 7.3 5.5 9.6.1-.1-11 2.6-15.8.9z" fill="#f0c7b1" stroke-width="none" opacity="1" stroke="none"></path><path id="SvgjsPath12509" d="M91.1 92.5c-.1-.5-.1-1-.3-1.4l-.3-.9c-.5-1.9-1.5-4.5-3-6.2-1.2-1.3-4.1-4.4-9-4.4s-8.2 1.6-8.8 1.9c-.2.1-.5.3-.7.5-.4.2-.8.5-1.1 1-.1.2-.1.3-.1.5-.1.1-.1.2-.1.2h.1c0 .1 0 .3.1.4.1.3.2.6.2.9l.6 1.8c.4 1.2.9 2.3 1.6 3.4.7 1.1 1.5 2 2.5 2.8s2.2 1.3 3.4 1.6c2.5.5 5 .3 7.5 0s4.9-.8 7.3-1.5c.2-.2.2-.4.1-.6zm0 .4c-2.4.4-4.9.8-7.3 1.1-1.2.1-2.5.2-3.7.2-1.2 0-2.5 0-3.7-.2-2.4-.4-4.6-1.9-5.8-4-.7-1-1.2-2.2-1.6-3.3-.2-.6-.4-1.2-.5-1.8-.1-.3-.2-.6-.2-.9 0-.2-.1-.3-.1-.4 1.4-.4 6.6-1.9 10.5-1.9 4.5.1 7.9 3.6 9.3 5.1 1.2 1.1 3 5.1 3.1 6.1z" fill="#5d5d5d" stroke-width="none" opacity="1" stroke="none"></path></g></g></g><g id="svga-group-eyes-right-move" transform="matrix(1,0,0,1,0,0)"><g id="svga-group-eyes-right"><g id="svga-group-eyesback-right"><path id="SvgjsPath12501" d="M119.8 74.2c7.5 0 13.5 5.8 13.5 13s-6 13-13.5 13-13.5-5.8-13.5-13 6-13 13.5-13z" fill="#ffffff" stroke-width="none" opacity="1"></path></g><g id="svga-group-eyesiriswrapper-right" transform="matrix(1,0,0,1,0,0)"><g id="svga-group-eyesiriscontrol-right" transform="matrix(1,0,0,1,0,0)"><g id="svga-group-eyesiris-right"><path id="SvgjsPath12579" d="M119.8 82.5c2.6 0 4.7 2.1 4.7 4.7s-2.1 4.7-4.7 4.7-4.7-2.1-4.7-4.7 2.1-4.7 4.7-4.7z" fill="#bd6723" stroke-width="none" opacity="1"></path><path id="SvgjsPath12580" d="M119.8 92.1c-2.7 0-4.9-2.2-4.9-4.9s2.2-4.9 4.9-4.9 4.9 2.2 4.9 4.9-2.2 4.9-4.9 4.9zm0-9.3c-2.4 0-4.4 2-4.4 4.4s2 4.4 4.4 4.4 4.4-2 4.4-4.4c0-2.4-2-4.4-4.4-4.4z" fill="#9e4600" stroke-width="none" opacity="1"></path><path id="SvgjsPath12581" d="M119.8 84.7c1.4 0 2.5 1.1 2.5 2.5s-1.1 2.5-2.5 2.5-2.5-1.1-2.5-2.5 1.1-2.5 2.5-2.5z" fill="#000000" stroke-width="none" opacity="1"></path><path id="SvgjsPath12582" d="M118.7 84.7c.5 0 .9.4.9.9s-.4.9-.9.9-.9-.4-.9-.9.4-.9.9-.9zm2.9 4c.2 0 .3.2.3.3s-.2.3-.3.3-.3-.2-.3-.3.1-.3.3-.3z" fill="#ffffff" stroke-width="none" opacity="1"></path></g></g></g><g id="svga-group-eyesfront-right"><path id="SvgjsPath12510" d="M119.8 73.7c-7.8 0-14.1 6.1-14.1 13.6s6.3 13.6 14.1 13.6 14.1-6.1 14.1-13.6-6.3-13.6-14.1-13.6zm5.3 19.5c-4.4 1.8-15 .1-15 .1.1-1.9 1.3-5.8 4.7-8.7 3.4-2.9 17.2-3.8 16.6-.7-.7 3.1-1.9 7.6-6.3 9.3z" fill="#f0c7b1" stroke-width="none" opacity="1" stroke="none"></path><path id="SvgjsPath12513" d="M131.6 84.1s0-1.3-.9-1.7c-.6-.2-4.4-1-9.1-.7-2.6.2-4.6 1.1-6.1 2.1-.3.2-.6.3-.8.5-.9.8-1.7 1.6-2.4 2.6-1.3 1.9-2.3 4.1-2.3 6.4 0 .3.1.8.1.8s.1-.3.2-.7c2.2.4 4.3.7 6.6.8 1.2.1 2.3.1 3.4.1 1.2 0 2.3-.2 3.4-.4s2.2-.8 3.2-1.4c.9-.7 1.7-1.6 2.4-2.5.6-1 1.1-2 1.5-3.1.2-.5.3-1.1.5-1.7l.2-.8c0-.1 0-.1.1-.2v-.1zm-.4.1-.2.8c-.1.6-.3 1.1-.4 1.7-.4 1.1-.8 2.1-1.4 3.1-1.2 1.9-3.3 3.2-5.5 3.6-.6.1-1.1.2-1.7.3-.6 0-1.1.1-1.7.1-1.1.1-2.3.1-3.4 0-2.2-.1-4.4-.2-6.6-.4.4-1.5 1.5-4.6 2.4-5.7 1.2-1.5 4.2-4.5 8.5-4.9 3.6-.3 8.6.8 10 1.2v.2z" fill="#5d5d5d" stroke-width="none" opacity="1" stroke="none"></path></g></g></g><g id="svga-group-facehighlight-single"></g><g id="svga-group-eyebrows-left-move" transform="matrix(1,0,0,1,0,3)"><g id="svga-group-eyebrows-left-rotate" transform="matrix(1,1.7453292519943295e-9,-1.7453292519943295e-9,1,1.2424926865151065e-7,-1.3638876339427952e-7)"><g id="svga-group-eyebrows-left"><path id="SvgjsPath13112" d="M91.61 68.78s.68 5.89.07 6.92c-.62 1.03-6.92-2.39-9.93-4.06-3.02-1.68-5.83-2.31-7.18-1.33-1.35.98-5.84 5.47-5.84 5.47s4.12-10.89 4.61-11.59c.49-.7 6.94 1.5 6.94 1.5s1.97 1.59 3.08 2.82l-1.07-2.59s7.5 2.36 7.93 2.92c.41.57 1.14 2.84 1.14 2.84l.25-2.9z" fill="#2a232b" stroke-width="none" opacity="1"></path><path id="SvgjsPath13113" d="M91.6 68.75c-.01.02 0 .04-.01.06-.01-.01-.02-.01-.02-.01v.02l.01.04.01.04c-.05.41-.1.82-.16 1.26-.05.33-.09.68-.14 1.02-.11-.35-.22-.7-.34-1.05-.08-.25-.18-.5-.28-.73-.05-.12-.1-.25-.17-.37-.07-.13-.1-.23-.24-.38-.13-.12-.23-.16-.34-.22-.11-.06-.22-.11-.32-.17-.22-.1-.44-.2-.65-.29-.44-.19-.87-.35-1.31-.53-1.76-.65-3.52-1.26-5.29-1.85l-.56-.19.25.62.48 1.19c-.16-.14-.32-.3-.47-.44-.52-.47-1.05-.92-1.59-1.36l-.05-.04-.05-.02a54.25 54.25 0 0 0-4.63-1.34c-.39-.08-.78-.17-1.19-.22a6 6 0 0 0-.61-.06c-.1 0-.21 0-.32.02-.12.02-.23.03-.39.15-.1.09-.11.14-.15.2l-.07.16-.13.29-.24.58-.46 1.17c-.61 1.56-1.2 3.14-1.78 4.71l-1.73 4.73-.19.53.37-.37c.95-.96 1.91-1.91 2.88-2.84.98-.91 1.96-1.87 3.01-2.63.53-.34 1.19-.4 1.83-.36.65.05 1.3.2 1.95.41 1.29.42 2.52 1.07 3.75 1.78 1.24.7 2.49 1.36 3.76 1.98 1.27.62 2.54 1.22 3.88 1.65.33.1.67.2 1.03.24.18.02.36.03.55 0 .1-.02.2-.06.29-.13.04-.04.09-.11.12-.15.02-.04.05-.1.06-.15.13-.4.15-.78.17-1.16.01-.38.01-.76 0-1.15-.02-.77-.1-1.53-.17-2.29l-.12-1.14-.07-.57-.04-.29-.02-.14-.01-.07-.01-.04v-.02c-.04-.05-.07-.08-.08-.08zm.02.61.04.56.07 1.14c.04.75.05 1.51.06 2.26 0 .38-.01.75-.04 1.11-.03.36-.06.74-.17 1.03-.03.08-.06.13-.09.15-.04.03-.08.05-.15.06-.13.02-.28.01-.44-.01-.31-.06-.64-.15-.95-.26-1.28-.45-2.54-1.08-3.79-1.7-1.25-.63-2.49-1.31-3.73-1.98-.62-.34-1.25-.68-1.9-.97-.65-.28-1.3-.53-1.98-.73-.67-.19-1.35-.32-2.03-.34-.67-.01-1.38.08-1.96.49-.55.42-1.02.87-1.52 1.33l-1.47 1.39c-.84.8-1.69 1.62-2.52 2.43l1.65-4.12 1.9-4.63.49-1.14.25-.56.12-.28.07-.12c.01-.03.05-.08.02-.04 0 0 .08-.03.15-.04.08 0 .16-.01.25 0 .17.01.37.03.56.05.38.06.76.14 1.14.24 1.51.37 3.01.86 4.51 1.35.51.42 1.02.86 1.52 1.3.51.46 1.02.93 1.48 1.43L84.3 70l-.67-1.6-.83-1.99c1.59.48 3.17.98 4.74 1.52.44.15.88.3 1.31.46.22.08.44.17.64.25.11.04.21.1.31.14.1.04.21.1.27.16.01.01 0 .01.01.01l.03.04.04.06.09.16c.06.11.11.22.16.34.1.24.2.47.3.71.19.48.37.96.54 1.45l.17.48.03-.49c.03-.46.06-.91.08-1.39.02-.41.04-.84.08-1.27v.06l.02.26z" fill="#1b141c" stroke-width="none" opacity="1"></path></g></g></g><g id="svga-group-eyebrows-right-move" transform="matrix(1,0,0,1,0,3)"><g id="svga-group-eyebrows-right-rotate" transform="matrix(1,1.7453292519943295e-9,-1.7453292519943295e-9,1,1.2713780961348675e-7,-2.1252871817978303e-7)"><g id="svga-group-eyebrows-right"><path id="SvgjsPath13114" d="M108.81 71.46s-.04 5.1.68 5.96c.72.87 6.57-2.29 9.37-3.83 2.8-1.55 5.5-2.19 6.94-1.39s6.36 4.52 6.36 4.52-5.25-9.24-5.8-9.83c-.56-.59-6.69 1.52-6.69 1.52s-1.78 1.44-2.73 2.53l.77-2.27s-7.15 2.28-7.51 2.77c-.35.49-.82 2.48-.82 2.48l-.57-2.46z" fill="#2a232b" stroke-width="none" opacity="1"></path><path id="SvgjsPath13115" d="m132.25 76.67-2.22-4.02c-.74-1.35-1.49-2.67-2.26-4l-.59-.99-.31-.49-.16-.24-.09-.12c-.04-.04-.06-.1-.17-.16-.17-.1-.29-.1-.4-.12a1.71 1.71 0 0 0-.32 0c-.21.01-.4.04-.6.06-.38.06-.77.15-1.14.23-1.5.37-2.97.81-4.43 1.3l-.06.02-.04.03c-.48.4-.96.8-1.42 1.23l-.42.39.35-1.04.18-.53-.54.18c-1.69.57-3.36 1.14-5.03 1.77-.42.16-.83.32-1.24.5-.2.09-.41.18-.62.28-.1.05-.21.1-.3.15-.11.06-.2.11-.31.2-.11.14-.14.22-.19.34-.04.1-.08.22-.13.32-.07.22-.14.43-.2.64-.08.3-.15.61-.23.91-.08-.3-.16-.59-.25-.88-.11-.36-.21-.72-.3-1.08v-.08s-.01.01-.02.01c-.01-.02-.01-.03-.02-.06-.01 0-.03.03-.03.04v.11l-.01.12-.01.25-.01.49v.99c.01.66.03 1.31.09 1.97.03.32.07.66.13.99.07.33.12.66.29.99.02.05.05.08.08.12.02.04.08.09.14.12.11.07.21.09.3.1.2.03.37 0 .55-.01.34-.05.67-.14.99-.24 1.27-.42 2.47-.97 3.64-1.56 1.18-.57 2.35-1.19 3.49-1.83 1.14-.66 2.29-1.25 3.51-1.66.61-.2 1.24-.35 1.88-.42.63-.06 1.29-.03 1.85.25 1.13.62 2.2 1.41 3.26 2.16 1.06.77 2.11 1.55 3.15 2.36l.41.31-.22-.4zm-4.8-3.5c-.54-.38-1.07-.75-1.65-1.1-.61-.33-1.32-.39-1.99-.36-.68.04-1.34.18-1.97.36-.64.19-1.26.42-1.87.69-.61.27-1.2.59-1.77.9-1.15.62-2.31 1.24-3.47 1.83-1.17.58-2.34 1.17-3.56 1.59-.3.1-.61.2-.91.26-.15.03-.31.04-.44.03-.06 0-.12-.02-.15-.05a.324.324 0 0 1-.1-.12c-.14-.25-.22-.56-.29-.88-.07-.31-.12-.63-.15-.96-.08-.65-.15-1.3-.19-1.95l-.06-.98-.03-.49-.01-.25v-.05c.08.37.16.74.22 1.09.07.41.15.8.23 1.2l.09.42.11-.43c.11-.43.24-.85.38-1.27.07-.21.14-.42.22-.62.04-.1.08-.2.13-.3l.07-.14.04-.06.02-.03.01-.01c.05-.04.16-.1.25-.15.09-.05.2-.09.3-.14.2-.09.41-.16.61-.24.42-.15.83-.3 1.25-.45 1.49-.51 3-.99 4.5-1.46l-.6 1.73-.48 1.4 1-1.1c.4-.45.85-.87 1.31-1.28.44-.4.9-.8 1.35-1.17 1.43-.48 2.86-.94 4.3-1.31.37-.09.73-.18 1.1-.23.18-.03.36-.06.54-.07.08-.01.18-.01.25 0 .07 0 .15.02.15.02-.02-.03.01.01.03.04l.08.11.15.23.31.47.6.97 2.37 3.93 2.08 3.49c-.91-.68-1.83-1.35-2.75-2l-1.61-1.11z" fill="#1b141c" stroke-width="none" opacity="1"></path></g></g></g><g id="svga-group-beardwrap"><g id="svga-group-beard-single-move" transform="matrix(1,0,0,1,0,0)"><g id="svga-group-beard-single"></g></g></g><g id="svga-group-mustache-single-move" transform="matrix(1,0,0,1,0,0)"><g id="svga-group-mustache-single"></g></g><g id="svga-group-nose-single-move" transform="matrix(1,0,0,1,0,0)"><g id="svga-group-nose-single"><path id="SvgjsPath12618" d="M99.1 116.5c.67.12 4.53-3.31 4.53-3.31s2.06 1.59 3.62 1.43c1.56-.16 2.44-1.08 3-1.96.56-.88-.89-3.1-1.78-4.41-.9-1.31-3.54-5.22-4.09-7.02-1.07-3.45-3-4.76-4.92-4.64-1.92.12-4.04 1.52-4.6 3.44-.56 1.92-.72 4.28-1.8 5.76s-3.32 4-3.56 4.72c-.24.72-.11 2.8 1.24 3.56 1.73.97 4.3-.51 4.3-.51s3.18 2.78 4.06 2.94z" fill="#f0c7b1" stroke-width="none" opacity="1" stroke="none"></path><path id="SvgjsPath12619" d="M110.28 110.87c-.42-1.01-1.08-1.86-1.81-2.61.57.88 1.08 1.8 1.39 2.76.15.48.24.97.16 1.42-.05.23-.12.41-.26.6-.13.2-.29.39-.47.54-.69.66-1.7.91-2.68.78-.49-.06-.99-.2-1.46-.39-.45-.16-.86-.39-1.29-.62.38-.56.72-1.15 1.02-1.76-.97.91-1.89 1.83-2.87 2.64-.49.4-.98.8-1.51 1.09-.51.3-1.07.55-1.51.52-.12.01-.21-.02-.31-.04-.09-.05-.17-.06-.3-.16-.24-.15-.49-.36-.74-.55-.5-.39-.99-.82-1.49-1.23-.99-.84-1.99-1.69-3.07-2.48a21.8 21.8 0 0 0 1.68 2.24c-.5.22-1.01.41-1.53.52-.64.12-1.3.15-1.84-.1-1.09-.53-1.72-1.83-1.54-2.94.05-.28.13-.5.3-.74.17-.26.36-.53.56-.79.4-.52.82-1.02 1.26-1.52l.66-.74c.26-.28.46-.56.67-.84.41-.57.77-1.18 1.07-1.83.3-.65.48-1.4.59-2.06.12-.68.22-1.35.3-2.02.15-1.35.27-2.69.31-4.04.1-2.7.03-5.42-.51-8.07.05 2.69-.14 5.35-.4 8-.15 1.32-.29 2.65-.5 3.96-.1.66-.2 1.31-.32 1.96-.12.66-.27 1.22-.54 1.79a9.34 9.34 0 0 1-.94 1.65c-.18.26-.37.53-.57.74-.23.26-.45.51-.66.78-.43.53-.85 1.07-1.24 1.63-.2.28-.39.57-.57.88-.2.33-.34.76-.37 1.14-.13 1.57.85 3.05 2.25 3.55.73.23 1.47.11 2.12-.11.54-.19 1.03-.46 1.49-.77.24.28.47.57.71.84.44.5.91.96 1.41 1.42.25.23.51.44.82.65.13.1.36.22.57.3.22.06.44.12.66.11.88 0 1.55-.38 2.14-.76.58-.41 1.1-.86 1.55-1.37.44-.48.84-.99 1.21-1.53.75.66 1.64 1.25 2.68 1.45.54.12 1.11.12 1.66 0 .55-.14 1.07-.41 1.49-.8.21-.19.39-.42.54-.65.17-.23.29-.54.32-.84.06-.55-.08-1.1-.29-1.6z" fill="#c27b55" stroke-width="none" opacity="1" stroke="none"></path></g></g><g id="svga-group-hair-front"><path id="SvgjsPath12654" d="M62.3 84.7s1.5-2.7 1.7-7.3 0-10.9.2-14.2c.2-3.3 1-8.2 1.5-10 .4-1.8.6-3.5 1.8-5.3 1.2-1.8 2.4-3.6 5.2-4.3 2.8-.7 7.6-3 8.7-4.3 0 0 3-.6 3.7-1 0 0 5.3 2.6 7.2 2.8 1.9.2 8.2.5 12.3-.7s10.1-2.6 12.4-2.2 12.2-1.1 16.6 12.7c0 0 1.1 4.3 1.2 10.4.1 6.1.3 10.1.8 11.9.4 1.8 1.2 5.6 1.2 7.3s.6 2.5.6 2.5 1.7-3.8 2.2-5.8 1.9-11.6 2.1-13.1c.2-1.5.6-6.4.9-8.5.3-2 0-9.5 0-9.5s.1-4.7-.6-6.1c-.7-1.3-1.4-3.5-2.9-4.8 0 0 .1-1.6-.1-2.7s-2.1-5.3-8.2-10.6-13.3-9.4-21.6-9.4c0 0 2.9-.4 4.8-.6 0 0-5.5-.7-8.1-.3l4.3-.6s-7.2-1.4-12.3.1c0 0 .7-1.2 4.2-2.5 0 0-7.8-2.1-15.4 3.1 0 0-5.9-.3-11.7 6.8 0 0-3.7 1.1-4.7 1.8s-6.2 3.1-6.9 11.4c0 0-5 .6-5.5 11l.5 8.7s-1.8 3.6-1.8 7.3 1 6 1.1 7.8c.1 1.8.7 5.2.7 5.2s1.8 4.2 2.1 5.9c.2 1.9 1.8 7.1 1.8 7.1z" fill="#2a232b" stroke-width="none" opacity="1" stroke="none"></path><path id="SvgjsPath12655" d="M143 46.5c.1-1 .1-2 0-3s-.3-2-.6-3-.7-1.9-1.1-2.8c-.4-.8-1-1.6-1.6-2.4.2-1.8-.4-3.5-1.2-5-.8-1.5-1.9-2.9-3.1-4.2-2.3-2.6-5-4.8-7.7-6.9-2.8-2-5.8-3.8-9.1-4.9-1.6-.6-3.3-1-5-1.2-1.7-.2-3.4-.3-5.1-.1 3.4-.3 6.8.5 10 1.7s6.1 3 8.8 5.1c1.4 1 2.6 2.1 3.9 3.3 1.3 1.1 2.5 2.3 3.6 3.6 1.1 1.3 2.1 2.6 2.9 4.1.8 1.4 1.3 3.1 1.1 4.6v.2l.2.2c.6.7 1.1 1.5 1.6 2.3.4.8.8 1.7 1.1 2.6s.5 1.8.5 2.8c.1 1 .1 1.9 0 2.9.2 3.1.2 6.2.1 9.3-.1 3.1-.7 6.1-1.1 9.2-.4 3.1-.8 6.2-1.3 9.2-.2 1.5-.5 3.1-.9 4.5-.5 1.4-1.1 2.9-1.5 4.4.5-1.5 1.1-2.9 1.7-4.3.5-1.5.8-3 1.1-4.6.6-3.1 1.1-6.1 1.5-9.2l.7-4.6c.3-1.5.4-3.1.5-4.7.2-2.9.2-6 0-9.1zm-7.5 1.3c.1-.8.4-1.6.6-2.4.2-.8.5-1.6.8-2.4l.8-2.4.4-1.2.2-.6.1-.3.1-.2v-.1.1-.1c-.1 0 0 0-.1.1l-.1.1-.2.3-.3.5-.6 1.1c-.4.8-.8 1.5-1.1 2.3-.7 1.6-1.3 3.2-1.6 4.9-.2 1.2-.2 2.4-.2 3.6-.1-.5-.3-1-.4-1.5-.5-1.8-1.2-3.6-2-5.3s-1.7-3.4-3-4.9c-2.4-3-5.9-4.9-9.4-6.3-3.5-1.2-6.3-3.8-8.2-6.9-.9-1.5-1.7-3.3-1.8-5.1-.1-.9.1-1.8.4-2.6.4-.8.9-1.5 1.7-2 1.4-1.1 3.3-1.6 5.1-1.5 1.8.1 3.7.7 5.3 1.6-1.6-1-3.4-1.6-5.3-1.8-1.9-.2-3.9.2-5.4 1.4-.8.5-1.5 1.3-1.9 2.2-.4.9-.6 1.9-.5 2.9.1 2 .8 3.8 1.8 5.4 1.9 3.3 5 6 8.5 7.3 3.4 1.4 6.7 3.3 8.9 6.1 1.8 2.2 3 4.8 4 7.5-1.3-3.2-3.6-6.2-6.7-8-1.8-1.1-3.9-1.7-6-1.8h-.4c-3.2-1-6.6-1.6-10-1.7h-2.5l-.8-.1c-.5 0-1.1-.2-1.6-.3-.5-.2-1-.3-1.5-.6-2-.9-3.7-2.3-4.8-4.1-1.2-1.8-2-3.9-2.3-6-.3-2.2-.2-4.4.5-6.4s2.3-3.7 4.1-4.9c1.9-1.1 4.1-1.8 6.3-2.1-2.2.1-4.5.6-6.5 1.7s-3.7 2.8-4.6 5c-.2.5-.4 1.1-.5 1.7-.1.6-.2 1.1-.2 1.7 0 .6-.1 1.1-.1 1.7 0 .6.1 1.1.1 1.7.3 2.3 1.1 4.5 2.3 6.5 1.3 1.9 3.2 3.5 5.3 4.4 2.1 1 4.6 1.1 6.8.9 2.2-.1 4.4.1 6.6.5.6.1 1.3.2 1.9.3-1.5 0-3 0-4.4.2-4.2.5-8.2 2-12.2 2.6-2 .3-4.1.4-6.1.2-2.1-.1-4.1-.6-5.9-1.4-1.8-.8-3.5-2-4.8-3.6-1.3-1.5-2.2-3.4-2.8-5.3s-.8-4-.7-6c.1-2 .3-4.1 1.1-6 1.6-3.7 4.9-6.6 8.6-8.2 3.4-1.5 7.3-2 10.9-1.4-.5.2-1 .3-1.5.6-.4.2-.8.4-1.2.7-.4.3-.7.6-.9 1.1l-.1.4.4-.1c1-.4 2.1-.6 3.1-.7 1.1-.1 2.1-.2 3.2-.2s2.2.1 3.2.1c1.1.1 2.2.2 3.2.4-1.1-.2-2.1-.4-3.2-.5s-2.2-.2-3.2-.2c-1.1 0-2.2 0-3.3.1-.9.1-1.8.2-2.7.5.2-.2.3-.4.5-.5.3-.2.7-.4 1.1-.6.8-.3 1.6-.6 2.5-.8l1.1-.2-1.1-.3c-4-1-8.5-.6-12.4 1-1.3.5-2.6 1.2-3.7 2.1-1.5.2-2.9.6-4.3 1.2-1.7.7-3.3 1.7-4.7 2.8-.4.3-.7.6-1.1.9-.3.3-.6.7-.9 1-.3.4-.5.8-.8 1.1-3.1.6-6.1 2.2-8.3 4.6-1.3 1.5-2.1 3.3-2.7 5.2-.3 1.2-.5 2.4-.5 3.6-1.5.5-2.8 1.6-3.6 3-.9 1.5-1.3 3.3-1.5 5-.4 3.3-.4 6.7 0 10.1v.2c-.9 2.7-1.6 5.5-1.8 8.4V61c.1.7.2 1.5.4 2.2.3 1.4.5 2.8.7 4.2.2 1.4.4 2.8.8 4.2.2.7.4 1.4.7 2.1.3.6.5 1.3.8 2 .9 2.7 1.7 5.4 2.4 8.2-.5-2.8-1-5.6-1.9-8.4-.2-.7-.4-1.4-.7-2.1-.3-.7-.5-1.3-.6-2-.3-1.4-.4-2.8-.6-4.2-.2-1.4-.4-2.8-.7-4.2-.2-.7-.3-1.4-.3-2v-2c.1-2.2.6-4.4 1.2-6.5.7 2.9 2.2 8.2 5.7 12.4 0 1.1.1 2.2 0 3.4 0 1.9-.1 3.8-.1 5.6 0 1.9-.1 3.8-.3 5.6-.1.9-.1 1.9-.3 2.8-.2.9-.2 1.9-.7 2.7.5-.8.7-1.8.9-2.7s.4-1.9.5-2.8c.2-1.9.4-3.8.6-5.6.2-1.9.2-3.8.3-5.7.1-1.9 0-3.8 0-5.6.1-3.7.6-7.5 1.5-11.1.4-1.8 1-3.6 2.2-5 1.2-1.4 2.8-2.4 4.6-3-1.8.4-3.6 1.4-5 2.7-.7.7-1.2 1.5-1.6 2.4-.4.9-.7 1.8-1 2.7-.6 1.8-.9 3.7-1.2 5.6-.3 1.9-.5 3.8-.6 5.7v.6c-4.1-5.7-5.1-13-5.1-13.1h-.1c-.2-1.6-.3-3.2-.4-4.8-.1-1.7 0-3.4.1-5.2.1-1.7.4-3.4 1.2-4.9.7-1.3 1.8-2.5 3.3-3.1 0 .7 0 1.5.1 2.2.3 1.9 1 3.9 2.4 5.3 1.4 1.5 3.4 2.2 5.3 2.4 3.9.6 7.9-.6 10.8-3-1.6 1-3.3 1.8-5.2 2.2-1.8.4-3.7.4-5.5.1-1.8-.4-3.6-1-4.8-2.3-1.2-1.3-1.9-3.1-2.1-4.9-.5-3.6.5-7.5 2.7-10.4 1.2-1.4 2.7-2.6 4.3-3.5 1-.6 2.2-1 3.3-1.4-.2.4-.3.7-.5 1.1-.7 1.7-1.1 3.6-1.2 5.4-.1 1.9 0 3.7.4 5.5.4 1.8 1 3.6 2.2 5.1.6.7 1.4 1.4 2.2 1.8.8.4 1.7.7 2.6.9 1.8.3 3.6.2 5.2-.6 1 .8 2.2 1.5 3.4 2.1 2 .8 4.1 1.3 6.2 1.4 2.1.2 4.2.1 6.3-.2 4.2-.7 8.1-2.2 12.2-2.8 2.6-.3 5.3-.5 7.8-.1l1.2.3c-.2-.1-.4-.1-.6-.2 1.3.3 2.5.7 3.6 1.3 3.5 1.9 6.1 5.4 7.5 9.2.1.2.2.5.2.7.5 1.8.9 3.6 1.1 5.4 0 .2 0 .3.1.5 0 .6-.1 1.3-.2 1.9.1-.3.2-.5.3-.8.1 1.3 0 2.6 0 3.9 0 3.7.4 7.5.9 11.2.3 1.8.7 3.7 1.1 5.5.4 1.8.2 3.7.1 5.5.1-.9.3-1.8.4-2.8.1-.9 0-1.9-.1-2.8-.1-.9-.3-1.8-.5-2.8s-.3-1.8-.4-2.8c-.4-3.7-.7-7.4-.6-11.1.1-1.8.1-3.8-.1-5.6 0-.3-.1-.7-.1-1 .1-.5.1-1 .2-1.5.3-1.3.3-3 .6-4.6zM80 38.4c-1.7-.5-3.4-1.3-4.3-2.6-1-1.4-1.5-3.1-1.9-4.9-.3-1.7-.4-3.5-.3-5.3.2-2.4.8-4.8 2-6.9.2 0 .5-.1.8-.1-.2 0-.5 0-.7.1.6-.9 1.2-1.7 2.1-2.4 1.3-1.2 2.8-2.2 4.4-3 1.2-.6 2.6-1.1 3.9-1.5-2.2 1.6-4 3.8-5.2 6.4-.9 2-1.1 4.2-1.2 6.3-.1 2.1.2 4.3.7 6.3s1.6 4 3 5.7c.5.6 1.1 1.2 1.8 1.7-1.7.6-3.5.6-5.1.2z" fill="#1b141c" stroke-width="none" opacity="1" stroke="none"></path></g><g id="svga-group-glasses-single-move" transform="matrix(1,0,0,1,0,0)"><g id="svga-group-glasses-single"></g></g></g></g></g><rect id="svga-credit-rect" width="200" height="15" x="0" y="185" fill="#ecf0f1" opacity="0.5" style="display: none;"></rect><text id="svga-credit-text" font-family="Avenir Next, Roboto, Helvetica, Arial, sans-serif" font-size="10px" text-anchor="start" font-weight="400" size="10px" anchor="start" weight="400" fill="#333333" x="33.402061462402344" y="182.71133995056152" style="display: none;"><tspan id="SvgjsTspan12423" dy="13" x="33.402061462402344">Created on AvatarMaker.com</tspan></text></g><defs id="SvgjsDefs12370"></defs></svg>